<svg xmlns="http://www.w3.org/2000/svg" width="24" height="24" viewBox="0 0 120 120" id="vector">
    <path id="face" d="M 66.72 17.122 L 60 23.897 L 53.28 17.122 C 41.084 4.959 21.305 4.959 9.109 17.122 C -3.036 29.331 -3.036 49.136 9.109 61.345 L 60 111.636 L 110.891 61.345 C 123.036 49.136 123.036 29.331 110.891 17.122 C 104.793 11.041 96.799 8 88.805 8 C 80.811 8 72.818 11.041 66.72 17.122 Z" fill="#ff5246" stroke-width="1"/>
    <g id="group">
        <path id="left_eye" d="M 32.727 48.909 C 32.727 53.428 36.391 57.091 40.909 57.091 C 45.428 57.091 49.091 53.428 49.091 48.909 C 49.091 44.391 45.428 40.727 40.909 40.727 C 36.391 40.727 32.727 44.391 32.727 48.909 Z" fill="#720906" stroke-width="1"/>
        <path id="right_eye" d="M 70.909 48.909 C 70.909 53.428 74.572 57.091 79.091 57.091 C 83.61 57.091 87.273 53.428 87.273 48.909 C 87.273 44.391 83.61 40.727 79.091 40.727 C 74.572 40.727 70.909 44.391 70.909 48.909 Z" fill="#720906" stroke-width="1"/>
    </g>
    <path id="mouth" d="M 60 66.8 C 54.1 66.8 48.6 65.5 43.7 63.1 C 43.9 72 51.1 79.1 60 79.1 C 68.9 79.1 76.2 71.9 76.3 63.1 C 71.4 65.4 65.9 66.8 60 66.8 Z" fill="#720906" stroke-width="1"/>
</svg>